<svg xmlns="http://www.w3.org/2000/svg" version="1.1" xmlns:xlink="http://www.w3.org/1999/xlink" xmlns:svgjs="http://svgjs.dev/svgjs" width="100%" height="100%" viewBox="0 0 1000 600"><rect width="1000" height="600" x="0" y="0" fill="#ccf381"/><g><rect width="333.3333333333333" height="333.3333333333333" rx="13.333333333333334" ry="13.333333333333334" y="255.00866212191443" fill="#4831d4" transform="matrix(0.536972895455738,0,0,0.536972895455738,-14.1560860672726,73.57178543235084)" x="289.7220764160156"/><path d="M346.3366727613495 483.55033368643024L263.08146773628084 483.55033368643024L263.08146773628084 471.3628341707179Q281.64917533179977 457.66491804835755 294.09709150383065 447.3524184581395Q306.57104934149345 437.03991886792136 314.0710490434702 428.6024192031975Q321.57104874544706 420.1649195384736 324.7741736181663 412.5867948396012Q327.95125682525367 404.98262847509693 327.95125682525367 396.72742046979613L327.95125682525367 396.72742046979613Q327.95125682525367 385.6857542418859 320.92000710465044 378.8367961807057Q313.8887573840472 371.98783811952546 301.7012578683349 371.98783811952546L301.7012578683349 371.98783811952546Q288.9408417087216 371.98783811952546 281.2585503473218 380.32117112172193Q273.576258985922 388.6805457895502 272.27417570432874 402.56075357133363L272.27417570432874 402.56075357133363L259.1491762258694 394.67012888487886Q260.81584282630865 383.8107543163917 266.1804259464726 375.55554631109084Q271.5189674010047 367.30033830579 280.6075087065252 362.6128384920545Q289.6960500120457 357.925338678319 302.2741745122359 357.925338678319L302.2741745122359 357.925338678319Q311.83146579912994 357.925338678319 319.40959049800233 360.7378385665603Q327.01375686250657 363.5503384548016 332.45646497956614 368.7065882499106Q337.89917309662565 373.86283804501966 340.78979798176255 380.99825442815035Q343.7064645325313 388.1076291456492 343.7064645325313 396.72742046979613L343.7064645325313 396.72742046979613Q343.7064645325313 408.3680450072393 338.0814647560487 419.513877897677Q332.45646497956614 430.6857524537466 319.5137571605298 442.87325196945886Q306.57104934149345 455.0607514851712 284.46167522004106 469.8524175640698L284.46167522004106 469.8524175640698L284.46167522004106 470.06075088912473Q286.51896680495827 469.8524175640698 290.16479999341925 469.7742925671742Q293.83667484751203 469.67012590464674 297.48250803597296 469.5920009077512Q301.12834122443394 469.4878342452237 303.00334114992813 469.4878342452237L303.00334114992813 469.4878342452237L346.3366727613495 469.4878342452237L346.3366727613495 483.55033368643024ZM442.14396062097666 483.55033368643024L427.14396121702305 483.55033368643024L427.14396121702305 451.10241830912787L366.7533386167308 451.10241830912787L366.7533386167308 440.0607520812176Q366.7533386167308 440.0607520812176 366.7533386167308 440.0607520812176Q366.7533386167308 440.0607520812176 366.7533386167308 440.0607520812176L366.7533386167308 440.0607520812176L423.2116697066116 359.8003386038132L442.14396062097666 359.8003386038132L442.14396062097666 438.1857521557234L464.071043083006 438.1857521557234L464.071043083006 451.10241830912787L442.14396062097666 451.10241830912787L442.14396062097666 483.55033368643024ZM382.6908379834315 438.1857521557234L382.6908379834315 438.1857521557234L427.14396121702305 438.1857521557234L427.14396121702305 391.8576289966376Q427.14396121702305 386.9878375234791 427.4304195389735 381.93575439089744Q427.6908361952922 376.857629592684 427.89916952034713 371.98783811952546L427.89916952034713 371.98783811952546L427.50854453586913 371.98783811952546Q425.26896129152885 376.67533793326095 421.70125309996354 382.4826293691666Q418.1335449083982 388.28992080507226 415.13875336073386 392.61283729996165L415.13875336073386 392.61283729996165L382.6908379834315 438.1857521557234Q382.6908379834315 438.1857521557234 382.6908379834315 438.1857521557234Q382.6908379834315 438.1857521557234 382.6908379834315 438.1857521557234ZM535.7116652362635 346.67533912535384L549.7741646774698 346.67533912535384L492.37833362484196 496.6753331648896L478.3158341836355 496.6753331648896L535.7116652362635 346.67533912535384ZM562.5085391714513 373.86283804501966L562.5085391714513 359.8003386038132L653.628327217343 359.8003386038132L653.628327217343 373.86283804501966Q638.0814528351202 390.3732540556214 628.2377032262757 407.71700336644267Q618.3939536174312 425.06075267726396 613.8887454631188 443.81075193220596Q609.3835373088064 462.56075118714796 609.3835373088064 483.55033368643024L609.3835373088064 483.55033368643024L594.0189545860067 483.55033368643024Q594.0189545860067 462.743042846571 599.1752043811155 442.7690853069314Q604.3314541762247 422.79512776729183 614.8262454258659 404.43575349682783Q625.321036675507 386.050337560732 640.8939527233615 370.11283819403127L640.8939527233615 370.11283819403127L643.3158276271249 373.86283804501966L562.5085391714513 373.86283804501966Z " fill="#ccf381" transform="matrix(0.536972895455738,0,0,0.536972895455738,-14.1560860672726,73.57178543235084)"/><path d="M789.2533347966523 359.8003386038132L803.4981258972819 359.8003386038132L803.4981258972819 483.55033368643024L784.930418301763 483.55033368643024L733.1856286912496 400.68575364583944L720.0606292127901 377.43054623658503L719.8783375533671 377.43054623658503L720.6335458566912 396.180545491527L720.6335458566912 483.55033368643024L706.3887547560616 483.55033368643024L706.3887547560616 359.8003386038132L724.9304206859487 359.8003386038132L776.4929186370391 442.30033532555785L789.8262514405533 466.1024177130814L790.0085430999764 466.1024177130814L789.2533347966523 447.1701267987164L789.2533347966523 359.8003386038132ZM880.373122842544 485.42533361192443L880.373122842544 485.42533361192443Q867.0658317046616 485.42533361192443 856.6491654519159 479.6180421760188Q846.2585408648024 473.8107507401131 840.4512494288967 462.8211678434666Q834.6179163273591 451.8576266124519 834.6179163273591 436.67533554907527L834.6179163273591 436.67533554907527Q834.6179163273591 421.49304448569865 840.4512494288967 410.52950325468396Q846.2585408648024 399.5399203580374 856.3887487955974 393.73262892213177Q866.4929150607607 387.92533748622617 879.4356228797969 387.92533748622617L879.4356228797969 387.92533748622617Q892.5606223582563 387.92533748622617 901.8574969888316 393.55033726270875Q911.1283299537752 399.17533703919133 915.9981214269337 408.83679498861284Q920.8679129000923 418.4982529380343 920.8679129000923 430.4774191286917L920.8679129000923 430.4774191286917Q920.8679129000923 433.6805440014109 920.6856212406692 436.3107522302292Q920.5033295812461 438.91491879341555 920.1387462624 440.99825204396467L920.1387462624 440.99825204396467L844.3835409393082 440.99825204396467L844.3835409393082 427.6649192404504L913.5762465231703 427.6649192404504L905.8679134961387 429.1753358470985Q905.8679134961387 415.685753049793 898.4720804566894 408.3680450072393Q891.07624741724 401.0503369646855 879.0710395609508 401.0503369646855L879.0710395609508 401.0503369646855Q869.8783315929029 401.0503369646855 863.2116651911456 405.26908679704746Q856.5710404550205 409.4878366294094 852.8991656009275 417.4565863127598Q849.2533324124668 425.4253359961101 849.2533324124668 436.67533554907527L849.2533324124668 436.67533554907527Q849.2533324124668 447.7430434426174 853.0033322634551 455.78991812286336Q856.7533321144435 463.86283446874114 863.6022901756237 468.0815843011031Q870.4512482368038 472.300334133465 880.0085395236979 472.300334133465L880.0085395236979 472.300334133465Q890.321039113916 472.300334133465 896.7793721906182 468.36804262305355Q903.2637469329522 464.43575111264215 907.1960384433637 457.66491804835755L907.1960384433637 457.66491804835755L918.9929129745981 464.6180427720652Q915.4512464486645 470.99825085187183 909.9043716690776 475.6857506656073Q904.3835385551224 480.3732504793428 896.9616638500413 482.8992920456336Q889.5658308105919 485.42533361192443 880.373122842544 485.42533361192443ZM1043.315824701116 466.1024177130814L1066.9356154292166 389.80033741172036L1083.6283230992412 389.80033741172036L1050.998116062516 483.55033368643024L1035.9981166585624 483.55033368643024L1009.5658260422206 408.9149199855084L984.6179103668949 483.55033368643024L969.6179109629413 483.55033368643024L937.013745591848 389.80033741172036L953.6804115962407 389.80033741172036L977.3262439899731 466.1024177130814L1002.8210346435678 389.80033741172036L1017.8210340475214 389.80033741172036L1043.315824701116 466.1024177130814ZM1139.8783208640673 485.42533361192443L1139.8783208640673 485.42533361192443Q1126.1804047417068 485.42533361192443 1114.669988532423 479.6180421760188Q1103.1335306575072 473.8107507401131 1096.9356142371237 463.10762616541706L1096.9356142371237 463.10762616541706L1109.6960303967371 453.91491819736916Q1113.8106135665714 462.56075118714796 1121.7793632499217 467.43054266030646Q1129.748112933272 472.300334133465 1140.9981124862372 472.300334133465L1140.9981124862372 472.300334133465Q1150.9460287576094 472.300334133465 1156.571028534092 468.44616761994916Q1162.1960283105745 464.6180427720652 1162.1960283105745 458.4201263516816L1162.1960283105745 458.4201263516816Q1162.1960283105745 454.48783484127017 1159.6699867442837 451.2065849716553Q1157.1179035123612 447.92533510204044 1150.0085287948623 446.4149184953924L1150.0085287948623 446.4149184953924L1127.508529688932 441.72741868165684Q1113.8106135665714 438.91491879341555 1107.8991554681384 432.3524190541859Q1102.013739035337 425.7899193149562 1102.013739035337 416.0503363686391L1102.013739035337 416.0503363686391Q1102.013739035337 408.3680450072393 1106.414780527122 401.9878369274326Q1110.8158220189073 395.60762884762596 1118.9668633616805 391.779503999742Q1127.1179047044538 387.92533748622617 1138.185612597996 387.92533748622617L1138.185612597996 387.92533748622617Q1152.0658203797796 387.92533748622617 1161.6231116666736 393.3680456032857Q1171.1804029535676 398.81075372034525 1175.8679027673031 408.7326283260854L1175.8679027673031 408.7326283260854L1163.3158199327447 416.98783633138623Q1160.1387367256573 408.7326283260854 1153.0033203425266 404.9045034782014Q1145.8679039593958 401.0503369646855 1138.185612597996 401.0503369646855L1138.185612597996 401.0503369646855Q1131.4408211993434 401.0503369646855 1126.6491547230803 402.9253368901797Q1121.8835299124494 404.8003368156739 1119.3574883461586 408.08158668528876Q1116.8054051142358 411.3628365549036 1116.8054051142358 415.47741972473807L1116.8054051142358 415.47741972473807Q1116.8054051142358 419.61804456020445 1119.617905002477 423.08158608924236Q1122.4304048907184 426.5451276182802 1130.1387379177502 428.0555442249283L1130.1387379177502 428.0555442249283L1153.5762369864276 432.9253356980869Q1166.701236464887 435.5555439269051 1171.9356112568917 441.5451270222338Q1177.196027714528 447.56075178319435 1177.196027714528 456.1805431073413L1177.196027714528 456.1805431073413Q1177.196027714528 464.98262609091125 1172.5085279007926 471.64929249266845Q1167.8210280870571 478.2899172287937 1159.3835284223333 481.85762542035906Q1150.9460287576094 485.42533361192443 1139.8783208640673 485.42533361192443ZM1348.5762292378242 483.55033368643024L1265.3210242127552 483.55033368643024L1265.3210242127552 471.3628341707179Q1283.8887318082743 457.66491804835755 1296.336647980305 447.3524184581395Q1308.810605817968 437.03991886792136 1316.3106055199448 428.6024192031975Q1323.8106052219216 420.1649195384736 1327.013730094641 412.5867948396012Q1330.1908133017282 404.98262847509693 1330.1908133017282 396.72742046979613L1330.1908133017282 396.72742046979613Q1330.1908133017282 385.6857542418859 1323.159563581125 378.8367961807057Q1316.1283138605218 371.98783811952546 1303.9408143448095 371.98783811952546L1303.9408143448095 371.98783811952546Q1291.180398185196 371.98783811952546 1283.4981068237962 380.32117112172193Q1275.8158154623964 388.6805457895502 1274.5137321808033 402.56075357133363L1274.5137321808033 402.56075357133363L1261.388732702344 394.67012888487886Q1263.0553993027831 383.8107543163917 1268.419982422947 375.55554631109084Q1273.7585238774793 367.30033830579 1282.8470651829996 362.6128384920545Q1291.93560648852 357.925338678319 1304.5137309887104 357.925338678319L1304.5137309887104 357.925338678319Q1314.0710222756045 357.925338678319 1321.649146974477 360.7378385665603Q1329.2533133389811 363.5503384548016 1334.6960214560406 368.7065882499106Q1340.1387295731004 373.86283804501966 1343.029354458237 380.99825442815035Q1345.9460210090058 388.1076291456492 1345.9460210090058 396.72742046979613L1345.9460210090058 396.72742046979613Q1345.9460210090058 408.3680450072393 1340.3210212325232 419.513877897677Q1334.6960214560406 430.6857524537466 1321.7533136370043 442.87325196945886Q1308.810605817968 455.0607514851712 1286.7012316965156 469.8524175640698L1286.7012316965156 469.8524175640698L1286.7012316965156 470.06075088912473Q1288.7585232814329 469.8524175640698 1292.4043564698936 469.7742925671742Q1296.0762313239866 469.67012590464674 1299.7220645124476 469.5920009077512Q1303.3678977009083 469.4878342452237 1305.2428976264025 469.4878342452237L1305.2428976264025 469.4878342452237L1348.5762292378242 469.4878342452237L1348.5762292378242 483.55033368643024ZM1444.3835170974514 483.55033368643024L1429.3835176934977 483.55033368643024L1429.3835176934977 451.10241830912787L1368.9928950932056 451.10241830912787L1368.9928950932056 440.0607520812176Q1368.9928950932056 440.0607520812176 1368.9928950932056 440.0607520812176Q1368.9928950932056 440.0607520812176 1368.9928950932056 440.0607520812176L1368.9928950932056 440.0607520812176L1425.4512261830862 359.8003386038132L1444.3835170974514 359.8003386038132L1444.3835170974514 438.1857521557234L1466.3105995594804 438.1857521557234L1466.3105995594804 451.10241830912787L1444.3835170974514 451.10241830912787L1444.3835170974514 483.55033368643024ZM1384.930394459906 438.1857521557234L1384.930394459906 438.1857521557234L1429.3835176934977 438.1857521557234L1429.3835176934977 391.8576289966376Q1429.3835176934977 386.9878375234791 1429.6699760154481 381.93575439089744Q1429.9303926717669 376.857629592684 1430.1387259968217 371.98783811952546L1430.1387259968217 371.98783811952546L1429.7481010123438 371.98783811952546Q1427.5085177680035 376.67533793326095 1423.9408095764381 382.4826293691666Q1420.3731013848726 388.28992080507226 1417.3783098372085 392.61283729996165L1417.3783098372085 392.61283729996165L1384.930394459906 438.1857521557234Q1384.930394459906 438.1857521557234 1384.930394459906 438.1857521557234Q1384.930394459906 438.1857521557234 1384.930394459906 438.1857521557234ZM1537.9512217127383 346.67533912535384L1552.0137211539443 346.67533912535384L1494.6178901013166 496.6753331648896L1480.55539066011 496.6753331648896L1537.9512217127383 346.67533912535384ZM1564.748095647926 373.86283804501966L1564.748095647926 359.8003386038132L1655.8678836938175 359.8003386038132L1655.8678836938175 373.86283804501966Q1640.3210093115947 390.3732540556214 1630.4772597027502 407.71700336644267Q1620.6335100939057 425.06075267726396 1616.1283019395935 443.81075193220596Q1611.6230937852808 462.56075118714796 1611.6230937852808 483.55033368643024L1611.6230937852808 483.55033368643024L1596.2585110624811 483.55033368643024Q1596.2585110624811 462.743042846571 1601.4147608575902 442.7690853069314Q1606.5710106526992 422.79512776729183 1617.0658019023406 404.43575349682783Q1627.5605931519815 386.050337560732 1643.133509199836 370.11283819403127L1643.133509199836 370.11283819403127L1645.5553841035996 373.86283804501966L1564.748095647926 373.86283804501966Z " fill="#4831d4" transform="matrix(0.536972895455738,0,0,0.536972895455738,-14.1560860672726,73.57178543235084)"/></g></svg>